<?xml version="1.0" encoding="UTF-8" standalone="no"?>
<svg width="134px" height="150px" viewBox="0 0 134 150" version="1.1" xmlns="http://www.w3.org/2000/svg" xmlns:xlink="http://www.w3.org/1999/xlink">
    <!-- Generator: Sketch 3.6 (26304) - http://www.bohemiancoding.com/sketch -->
    <title>howto copy 2</title>
    <desc>Created with Sketch.</desc>
    <defs></defs>
    <g id="Page-1" stroke="none" stroke-width="1" fill="none" fill-rule="evenodd">
        <g id="howto-copy-2">
            <circle id="Oval-1" fill="#F5F5F5" cx="67" cy="67" r="67"></circle>
            <g id="meter" transform="translate(23.000000, 37.000000)">
                <rect id="Rectangle-1" stroke="#979797" fill="#F6A623" x="12" y="11" width="66" height="21"></rect>
                <path d="M40.4545455,20.3333333 L32.3636364,20.3333333 L32.3636364,18.3 C32.3636364,17.1755667 31.4574545,16.2666667 30.3409091,16.2666667 C29.2243636,16.2666667 28.3181818,17.1755667 28.3181818,18.3 L28.3181818,20.3333333 L24.2727273,20.3333333 L24.2727273,18.3 C24.2727273,17.1755667 23.3665455,16.2666667 22.25,16.2666667 C21.1334545,16.2666667 20.2272727,17.1755667 20.2272727,18.3 L20.2272727,20.3333333 L18.2045455,20.3333333 C17.088,20.3333333 16.1818182,21.2422333 16.1818182,22.3666667 C16.1818182,23.4911 17.088,24.4 18.2045455,24.4 L20.2272727,24.4 L20.2272727,26.4333333 C20.2272727,27.5577667 21.1334545,28.4666667 22.25,28.4666667 C23.3665455,28.4666667 24.2727273,27.5577667 24.2727273,26.4333333 L24.2727273,24.4 L28.3181818,24.4 L28.3181818,26.4333333 C28.3181818,27.5577667 29.2243636,28.4666667 30.3409091,28.4666667 C31.4574545,28.4666667 32.3636364,27.5577667 32.3636364,26.4333333 L32.3636364,24.4 L40.4545455,24.4 C41.5710909,24.4 42.4772727,23.4911 42.4772727,22.3666667 C42.4772727,21.2422333 41.5710909,20.3333333 40.4545455,20.3333333 L40.4545455,20.3333333 Z" id="Shape" fill="#FFFFFF"></path>
                <path d="M18.2045455,40.6666667 C17.088,40.6666667 16.1818182,41.5755667 16.1818182,42.7 C16.1818182,43.8244333 17.088,44.7333333 18.2045455,44.7333333 C19.3210909,44.7333333 20.2272727,43.8244333 20.2272727,42.7 C20.2272727,41.5755667 19.3210909,40.6666667 18.2045455,40.6666667 L18.2045455,40.6666667 Z M86.9772727,0 L2.02272727,0 C0.906181818,0 0,0.9089 0,2.03333333 L0,58.9666667 C0,60.0911 0.906181818,61 2.02272727,61 L86.9772727,61 C88.0938182,61 89,60.0911 89,58.9666667 L89,2.03333333 C89,0.9089 88.0938182,0 86.9772727,0 L86.9772727,0 Z M84.9545455,56.9333333 L4.04545455,56.9333333 L4.04545455,4.06666667 L84.9545455,4.06666667 L84.9545455,56.9333333 L84.9545455,56.9333333 Z M70.7954545,40.6666667 C69.6789091,40.6666667 68.7727273,41.5755667 68.7727273,42.7 C68.7727273,43.8244333 69.6789091,44.7333333 70.7954545,44.7333333 C71.912,44.7333333 72.8181818,43.8244333 72.8181818,42.7 C72.8181818,41.5755667 71.912,40.6666667 70.7954545,40.6666667 L70.7954545,40.6666667 Z M12.1363636,12.2 L76.8636364,12.2 L76.8636364,32.5333333 L12.1363636,32.5333333 L12.1363636,12.2 L12.1363636,12.2 Z M12.1363636,36.6 L76.8636364,36.6 L76.8636364,48.8 L12.1363636,48.8 L12.1363636,36.6 L12.1363636,36.6 Z" id="Shape" stroke="#0E436E" stroke-width="2"></path>
            </g>
        </g>
    </g>
</svg>