<?xml version="1.0" encoding="UTF-8" standalone="no"?>
<svg width="134px" height="150px" viewBox="0 0 134 150" version="1.1" xmlns="http://www.w3.org/2000/svg" xmlns:xlink="http://www.w3.org/1999/xlink">
    <!-- Generator: Sketch 3.6 (26304) - http://www.bohemiancoding.com/sketch -->
    <title>howto copy</title>
    <desc>Created with Sketch.</desc>
    <defs></defs>
    <g id="Page-1" stroke="none" stroke-width="1" fill="none" fill-rule="evenodd">
        <g id="howto-copy">
            <circle id="Oval-1" fill="#F5F5F5" cx="67" cy="67" r="67"></circle>
            <g id="business" transform="translate(27.000000, 39.000000)">
                <g id="Group">
                    <path d="M75.6614481,0 L6.33855186,0 C2.8435225,0 0,2.82997543 0,6.30835381 L0,47.1928747 C0,50.6712531 2.8435225,53.5012285 6.33855186,53.5012285 L34.5816947,53.5012285 C35.2463601,53.5012285 35.7852172,52.9649386 35.7852172,52.3034398 C35.7852172,51.641941 35.2463601,51.1056511 34.5816947,51.1056511 L6.33855186,51.1056511 C4.17076712,51.1056511 2.40704501,49.3503317 2.40704501,47.1928747 L2.40704501,6.30835381 C2.40704501,4.15089681 4.17076712,2.3955774 6.33855186,2.3955774 L75.6614481,2.3955774 C77.8292329,2.3955774 79.592955,4.15089681 79.592955,6.30835381 L79.592955,47.1928747 C79.592955,47.8543735 80.1318121,48.3906634 80.7964775,48.3906634 C81.4611429,48.3906634 82,47.8543735 82,47.1928747 L82,6.30835381 C82,2.82997543 79.1564775,0 75.6614481,0 L75.6614481,0 Z" id="Shape" fill="#0E436E"></path>
                    <path d="M10.1898239,44.5577396 L34.5812133,44.5577396 C35.2458787,44.5577396 35.7847358,44.0214496 35.7847358,43.3599509 C35.7847358,42.6984521 35.2458787,42.1621622 34.5812133,42.1621622 L10.1898239,42.1621622 C9.52515851,42.1621622 8.98630137,42.6984521 8.98630137,43.3599509 C8.98630137,44.0214496 9.52515851,44.5577396 10.1898239,44.5577396 L10.1898239,44.5577396 Z" id="Shape" fill="#0E436E"></path>
                    <path d="M24.2309198,20.3624079 L24.2309198,15.2518428 C24.2309198,13.1823833 22.5392485,11.4987715 20.4598826,11.4987715 L12.7573386,11.4987715 C10.6779726,11.4987715 8.98630137,13.1823833 8.98630137,15.2518428 L8.98630137,20.3624079 C8.98630137,22.4318673 10.6779726,24.1154791 12.7573386,24.1154791 L20.4598826,24.1154791 C22.5392485,24.1154791 24.2309198,22.4318673 24.2309198,20.3624079 L24.2309198,20.3624079 Z M11.3933464,20.3624079 L11.3933464,19.004914 L12.7573386,19.004914 C13.4220039,19.004914 13.9608611,18.4686241 13.9608611,17.8071253 C13.9608611,17.1456265 13.4220039,16.6093366 12.7573386,16.6093366 L11.3933464,16.6093366 L11.3933464,15.2518428 C11.3933464,14.5033047 12.0052172,13.8943489 12.7573386,13.8943489 L15.4050881,13.8943489 L15.4050881,21.7199017 L12.7573386,21.7199017 C12.0052172,21.7199017 11.3933464,21.1109459 11.3933464,20.3624079 L11.3933464,20.3624079 Z M20.4598826,21.7199017 L17.8121331,21.7199017 L17.8121331,13.8943489 L20.4598826,13.8943489 C21.2120039,13.8943489 21.8238748,14.5033047 21.8238748,15.2518428 L21.8238748,16.6093366 L20.4598826,16.6093366 C19.7952172,16.6093366 19.2563601,17.1456265 19.2563601,17.8071253 C19.2563601,18.4686241 19.7952172,19.004914 20.4598826,19.004914 L21.8238748,19.004914 L21.8238748,20.3624079 C21.8238748,21.1109459 21.2120039,21.7199017 20.4598826,21.7199017 L20.4598826,21.7199017 Z" id="Shape" fill="#0E436E"></path>
                    <path d="M8.98630137,35.6941032 C8.98630137,36.355602 9.52515851,36.8918919 10.1898239,36.8918919 C10.8544892,36.8918919 11.3933464,36.355602 11.3933464,35.6941032 L11.3933464,33.1388206 C11.3933464,32.4773219 10.8544892,31.9410319 10.1898239,31.9410319 C9.52515851,31.9410319 8.98630137,32.4773219 8.98630137,33.1388206 L8.98630137,35.6941032 L8.98630137,35.6941032 Z" id="Shape" fill="#0E436E"></path>
                    <path d="M12.8375734,33.1388206 L12.8375734,35.6941032 C12.8375734,36.355602 13.3764305,36.8918919 14.0410959,36.8918919 C14.7057613,36.8918919 15.2446184,36.355602 15.2446184,35.6941032 L15.2446184,33.1388206 C15.2446184,32.4773219 14.7057613,31.9410319 14.0410959,31.9410319 C13.3764305,31.9410319 12.8375734,32.4773219 12.8375734,33.1388206 L12.8375734,33.1388206 Z" id="Shape" fill="#0E436E"></path>
                    <path d="M16.6888454,33.1388206 L16.6888454,35.6941032 C16.6888454,36.355602 17.2277025,36.8918919 17.8923679,36.8918919 C18.5570333,36.8918919 19.0958904,36.355602 19.0958904,35.6941032 L19.0958904,33.1388206 C19.0958904,32.4773219 18.5570333,31.9410319 17.8923679,31.9410319 C17.2277025,31.9410319 16.6888454,32.4773219 16.6888454,33.1388206 L16.6888454,33.1388206 Z" id="Shape" fill="#0E436E"></path>
                    <path d="M20.5401174,33.1388206 L20.5401174,35.6941032 C20.5401174,36.355602 21.0789746,36.8918919 21.7436399,36.8918919 C22.4083053,36.8918919 22.9471624,36.355602 22.9471624,35.6941032 L22.9471624,33.1388206 C22.9471624,32.4773219 22.4083053,31.9410319 21.7436399,31.9410319 C21.0789746,31.9410319 20.5401174,32.4773219 20.5401174,33.1388206 L20.5401174,33.1388206 Z" id="Shape" fill="#0E436E"></path>
                    <path d="M28.0821918,35.6941032 L28.0821918,33.1388206 C28.0821918,32.4773219 27.5433346,31.9410319 26.8786693,31.9410319 C26.2140039,31.9410319 25.6751468,32.4773219 25.6751468,33.1388206 L25.6751468,35.6941032 C25.6751468,36.355602 26.2140039,36.8918919 26.8786693,36.8918919 C27.5433346,36.8918919 28.0821918,36.355602 28.0821918,35.6941032 L28.0821918,35.6941032 Z" id="Shape" fill="#0E436E"></path>
                    <path d="M31.9334638,35.6941032 L31.9334638,33.1388206 C31.9334638,32.4773219 31.3946067,31.9410319 30.7299413,31.9410319 C30.0652759,31.9410319 29.5264188,32.4773219 29.5264188,33.1388206 L29.5264188,35.6941032 C29.5264188,36.355602 30.0652759,36.8918919 30.7299413,36.8918919 C31.3946067,36.8918919 31.9334638,36.355602 31.9334638,35.6941032 L31.9334638,35.6941032 Z" id="Shape" fill="#0E436E"></path>
                    <path d="M35.7847358,33.1388206 C35.7847358,32.4773219 35.2458787,31.9410319 34.5812133,31.9410319 C33.9165479,31.9410319 33.3776908,32.4773219 33.3776908,33.1388206 L33.3776908,35.6941032 C33.3776908,36.355602 33.9165479,36.8918919 34.5812133,36.8918919 C35.2458787,36.8918919 35.7847358,36.355602 35.7847358,35.6941032 L35.7847358,33.1388206 L35.7847358,33.1388206 Z" id="Shape" fill="#0E436E"></path>
                    <rect id="Rectangle-2" fill="#F6A623" x="40" y="36" width="37" height="27" rx="5"></rect>
                    <path d="M73.0136986,35.0028993 L73.0136986,30.5835381 C73.0136986,22.1736241 66.1390176,15.3316953 57.6888454,15.3316953 C49.2386732,15.3316953 42.3639922,22.1736241 42.3639922,30.5835381 L42.3639922,35.0028993 C40.1018513,35.967199 38.5127202,38.2045086 38.5127202,40.8046683 L38.5127202,58.6916462 C38.5127202,62.1700246 41.3562427,65 44.851272,65 L70.5264188,65 C74.0214481,65 76.8649706,62.1700246 76.8649706,58.6916462 L76.8649706,40.8046683 C76.8649706,38.2045086 75.2758395,35.967199 73.0136986,35.0028993 L73.0136986,35.0028993 Z M44.7710372,30.5835381 C44.7710372,23.4945455 50.5659178,17.7272727 57.6888454,17.7272727 C64.811773,17.7272727 70.6066536,23.4945455 70.6066536,30.5835381 L70.6066536,34.4983907 C70.5798552,34.4980713 70.5533777,34.4963145 70.5264188,34.4963145 L67.8786693,34.4963145 L67.8786693,30.5835381 C67.8786693,24.9916216 63.3075303,20.4422604 57.6888454,20.4422604 C52.0701605,20.4422604 47.4990215,24.9916216 47.4990215,30.5835381 L47.4990215,34.4963145 L44.851272,34.4963145 C44.8243131,34.4963145 44.7978356,34.4980713 44.7710372,34.4983907 L44.7710372,30.5835381 L44.7710372,30.5835381 Z M49.9060665,34.4963145 L49.9060665,30.5835381 C49.9060665,26.312543 53.3974051,22.8378378 57.6888454,22.8378378 C61.9802857,22.8378378 65.4716243,26.312543 65.4716243,30.5835381 L65.4716243,34.4963145 L49.9060665,34.4963145 L49.9060665,34.4963145 Z M70.5264188,62.6044226 L44.851272,62.6044226 C42.6834873,62.6044226 40.9197652,60.8491032 40.9197652,58.6916462 L40.9197652,40.8046683 C40.9197652,38.6472113 42.6834873,36.8918919 44.851272,36.8918919 L70.5264188,36.8918919 C72.6942035,36.8918919 74.4579256,38.6472113 74.4579256,40.8046683 L74.4579256,58.6916462 C74.4579256,60.8491032 72.6942035,62.6044226 70.5264188,62.6044226 Z" id="Shape" fill="#0E436E"></path>
                    <path d="M60.9412446,43.3417445 C59.7962935,42.3833538 58.283546,41.9815356 56.7913386,42.2397789 C54.7474364,42.5933661 53.070047,44.2654791 52.7118787,46.3060319 C52.442771,47.8393612 52.8909628,49.377801 53.9178082,50.5232064 L53.9178082,53.5810811 C53.9178082,55.6505405 55.6094795,57.3341523 57.6888454,57.3341523 C59.7682114,57.3341523 61.4598826,55.6505405 61.4598826,53.5810811 L61.4598826,50.5225676 C62.2813268,49.6041032 62.7436399,48.4181327 62.7436399,47.1928747 C62.7436399,45.7042629 62.0866771,44.3006143 60.9412446,43.3417445 L60.9412446,43.3417445 Z M59.4508023,49.1411179 C59.1974207,49.3682187 59.0528376,49.6916216 59.0528376,50.0309951 L59.0528376,53.5810811 C59.0528376,54.3296192 58.4409667,54.9385749 57.6888454,54.9385749 C56.9367241,54.9385749 56.3248532,54.3296192 56.3248532,53.5810811 L56.3248532,50.0309951 C56.3248532,49.6916216 56.1802701,49.3682187 55.9268885,49.1409582 C55.2301292,48.5161916 54.9225088,47.6331818 55.0831389,46.7180713 C55.2668767,45.6715233 56.1586067,44.780688 57.2037456,44.5999017 C57.3679061,44.5714742 57.5311037,44.5574201 57.6918943,44.5574201 C58.3170841,44.5574201 58.907773,44.7695086 59.39191,45.1748403 C59.9923875,45.6774324 60.3367554,46.4130344 60.3367554,47.192715 C60.3365949,47.9371007 60.0220744,48.6289435 59.4508023,49.1411179 L59.4508023,49.1411179 Z" id="Shape" fill="#FFFFFF"></path>
                </g>
            </g>
        </g>
    </g>
</svg>