<?xml version="1.0" encoding="UTF-8" standalone="no"?>
<svg width="134px" height="150px" viewBox="0 0 134 150" version="1.1" xmlns="http://www.w3.org/2000/svg" xmlns:xlink="http://www.w3.org/1999/xlink">
    <!-- Generator: Sketch 3.6 (26304) - http://www.bohemiancoding.com/sketch -->
    <title>howto</title>
    <desc>Created with Sketch.</desc>
    <defs></defs>
    <g id="Page-1" stroke="none" stroke-width="1" fill="none" fill-rule="evenodd">
        <g id="howto">
            <circle id="Oval-1" fill="#F5F5F5" cx="67" cy="67" r="67"></circle>
            <g id="technology" transform="translate(35.568392, 32.246094)" fill="#0E436E">
                <path d="M40.8368067,7.26553743 L42.5301307,4.42744742 C42.9143311,3.73915973 43.7610414,3.50507057 44.4511326,3.88821321 C45.1412238,4.27135584 45.3760558,5.1157351 44.9918555,5.80392638 L43.2985315,8.64201639 C43.0708536,9.10325302 42.5301307,9.33030407 42.0676208,9.33030407 C41.8399429,9.33030407 41.6051108,9.25221008 41.3775296,9.1742125 C40.6802842,8.79810797 40.4526064,7.96086322 40.8368067,7.26553743 L40.8368067,7.26553743 Z M15.9418986,8.6491509 C16.1695765,9.11038753 16.7102993,9.33743859 17.1728093,9.33743859 C17.4004872,9.33743859 17.6353193,9.25934459 17.8629971,9.18134701 C18.553185,8.79820438 18.7879204,7.95382512 18.40372,7.26563384 L16.710396,4.42754383 C16.3261956,3.73925614 15.4794853,3.50516698 14.7893941,3.88830962 C14.099303,4.27145225 13.8644709,5.11583151 14.2486713,5.80402279 L15.9418986,8.6491509 L15.9418986,8.6491509 Z M29.6166863,6.04515005 C30.385087,6.04515005 30.9969653,5.43495636 30.9969653,4.66867109 L30.9969653,1.37647896 C30.9969653,0.610193691 30.385087,0 29.6166863,0 C28.8482855,0 28.2364073,0.610193691 28.2364073,1.37647896 L28.2364073,4.66867109 C28.1580977,5.42791825 28.7699759,6.04515005 29.6166863,6.04515005 L29.6166863,6.04515005 Z M4.72177813,28.0334301 L1.42049726,28.0334301 C0.652096509,28.0334301 0.0402182577,28.6436238 0.0402182577,29.409909 C0.0402182577,30.1761943 0.652096509,30.786388 1.42049726,30.786388 L4.72177813,30.786388 C5.49017888,30.786388 6.10205714,30.1761943 6.10205714,29.409909 C6.10205714,28.6436238 5.49017888,28.0334301 4.72177813,28.0334301 L4.72177813,28.0334301 Z M57.8200295,28.0334301 L54.5187486,28.0334301 C53.7503479,28.0334301 53.1384696,28.6436238 53.1384696,29.409909 C53.1384696,30.1761943 53.7503479,30.786388 54.5187486,30.786388 L57.8200295,30.786388 C58.5884302,30.786388 59.2003085,30.1761943 59.2003085,29.409909 C59.2003085,28.6436238 58.5884302,28.0334301 57.8200295,28.0334301 L57.8200295,28.0334301 Z M55.2799952,14.7014355 C54.8957948,14.0131478 54.0490844,13.7790586 53.3589933,14.1622013 L50.5130682,15.8508634 C49.822977,16.234006 49.5881449,17.0783853 49.9723453,17.7665765 C50.2000232,18.2278132 50.740746,18.4548642 51.203256,18.4548642 C51.4309339,18.4548642 51.665766,18.3767702 51.8933472,18.2987726 L54.7392723,16.6101105 C55.4365177,16.234006 55.6641955,15.3896267 55.2799952,14.7014355 L55.2799952,14.7014355 Z M47.7525102,29.260952 C47.7525102,32.404187 46.9057998,35.4693281 45.3689983,38.2294205 C45.2907854,38.4564716 45.2124758,38.6125632 45.0630109,38.7686547 L44.9064884,38.9957058 C44.2946101,39.9180826 43.6755776,40.8334214 42.9071769,41.5997067 C40.2177743,45.3531354 38.8374953,48.5743681 38.9086506,50.6391347 L38.9086506,50.7172287 C38.9086506,50.8733203 38.9869602,51.1003713 38.9869602,51.3274224 L38.9869602,57.9189412 C38.9869602,60.8279907 36.6034484,63.1268465 33.7646775,63.1268465 L25.2411139,63.1268465 C22.3240334,63.1268465 20.0188311,60.7498967 20.0188311,57.9189412 L20.0188311,51.3274224 L20.0188311,50.9442798 L20.0188311,50.6392311 C20.0971407,48.6454239 18.7097075,45.5022853 16.1768274,41.8268541 C15.330117,40.9044773 14.4835034,39.911141 13.8716251,38.7617131 C13.7934122,38.6056215 13.7151026,38.534662 13.6439472,38.3785704 C12.0288361,35.618478 11.1822225,32.4753393 11.1822225,29.3391424 C11.1822225,19.2993399 19.4070495,11.1042911 29.4674147,11.1042911 C39.5276831,11.0261007 47.7525102,19.2211495 47.7525102,29.260952 L47.7525102,29.260952 Z M36.1480926,52.0935148 L22.857602,52.0935148 L22.857602,54.6975157 L36.1480926,54.6975157 L36.1480926,52.0935148 L36.1480926,52.0935148 L36.1480926,52.0935148 Z M36.1480926,58.0748399 L36.1480926,57.5356057 L22.857602,57.5356057 L22.857602,58.0748399 C23.0141245,59.3023618 24.0102031,60.2176041 25.2411139,60.2176041 L33.7718317,60.2176041 C34.9954915,60.2176041 35.9987244,59.3023618 36.1480926,58.0748399 L36.1480926,58.0748399 Z M44.9064884,29.260952 C44.9064884,20.75372 37.9908816,13.8570562 29.4600671,13.8570562 C20.9292526,13.8570562 14.0137425,20.75372 14.0137425,29.260952 C14.0137425,32.0210444 14.7821433,34.7030428 16.1624223,37.0799926 L16.1624223,37.0799926 C16.1624223,37.0799926 16.1624223,37.0799926 16.1624223,37.1579902 C16.7743005,38.1513265 17.4715459,39.0737034 18.2399466,39.9180826 C18.3182562,39.9961766 18.3182562,39.9961766 18.3964691,40.0741742 C20.9293493,43.6785495 22.3949954,46.7436906 22.7791958,49.2696938 L36.2264022,49.2696938 C36.6889122,46.1264588 38.8375919,42.529218 40.7585938,39.8471232 C40.7585938,39.7690292 40.8369034,39.7690292 40.9151163,39.6910316 C41.6053042,39.0027439 42.2242399,38.158461 42.6795957,37.3140818 C42.6795957,37.2359878 42.7579053,37.2359878 42.7579053,37.1579902 C42.7579053,37.0798962 42.8362149,37.0799926 42.8362149,37.0018986 C44.2163972,34.7030428 44.9064884,32.0210444 44.9064884,29.260952 L44.9064884,29.260952 Z M8.72030438,15.8508634 L5.87437926,14.1622013 C5.18419142,13.7790586 4.33757776,14.0061097 3.95337739,14.7014355 C3.56917701,15.3897231 3.79685489,16.234006 4.49410026,16.6171486 L7.34002538,18.3058107 C7.56770326,18.4619023 7.80253534,18.4619023 8.03021322,18.4619023 C8.49272318,18.4619023 9.02629185,18.2348513 9.26112393,17.7736146 C9.6381701,17.0783853 9.41049222,16.234006 8.72030438,15.8508634 L8.72030438,15.8508634 Z" id="Shape"></path>
            </g>
            <g id="flash" transform="translate(59.341035, 50.615863)" fill="#F6A623">
                <path d="M0.893853638,24.611656 L8.76226551,16.6477627 C9.08501896,16.3226005 8.85449908,15.7677603 8.39855637,15.7677603 L7.77103003,15.7677603 C7.3433132,15.7677603 7.10252238,15.2696685 7.36892652,14.9316289 L11.5413107,9.63096888 C11.8076892,9.29290342 11.569511,8.79483751 11.1391816,8.79483751 L9.04147631,8.79483751 C8.61885653,8.79483751 8.37809133,8.30967486 8.63166319,7.96902875 L13.9617695,0.825808762 C14.2153413,0.485162648 13.9745761,0 13.5519563,0 L5.12261275,0 C4.92792591,0 4.74863267,0.110968052 4.66413433,0.286452414 L0.542951155,8.68647592 C0.373903244,9.02970269 0.622352447,9.43228446 1.00142958,9.43228446 L2.90193792,9.43228446 C3.28101505,9.43228446 3.52946426,9.83486623 3.36041634,10.178093 L0.542951155,15.9226252 C0.373903244,16.2658778 0.622352447,16.6684337 1.00142958,16.6684337 L2.79180064,16.6684337 C3.17087778,16.6684337 3.41674004,17.0658542 3.2528404,17.4090552 L0.0716660691,24.023293 C-0.181905798,24.5471397 0.486601852,25.0245603 0.893853638,24.611656 L0.893853638,24.611656 Z" id="Shape"></path>
            </g>
        </g>
    </g>
</svg>