<?xml version="1.0" encoding="utf-8"?>
<!-- Generator: Adobe Illustrator 17.0.0, SVG Export Plug-In . SVG Version: 6.00 Build 0)  -->
<!DOCTYPE svg PUBLIC "-//W3C//DTD SVG 1.1//EN" "http://www.w3.org/Graphics/SVG/1.1/DTD/svg11.dtd">
<svg version="1.1" id="Layer_1" xmlns="http://www.w3.org/2000/svg" xmlns:xlink="http://www.w3.org/1999/xlink" x="0px" y="0px"
	 width="775px" height="241px" viewBox="-356.5 -129.5 775 241" enable-background="new -356.5 -129.5 775 241"
	 xml:space="preserve">
<path display="none" d="M-121.316,19l32.261,30.021v29.039h-64.522V49.021C-153.577,49.021-121.316,19-121.316,19z M-121.316,6.409
	l-41.478,38.598v42.271h82.957V45.007L-121.316,6.409z M-112.098,73.452h-18.435V45.8h18.435V73.452z M-66.011,32.656l-6.272,6.752
	L-121.316-6.14l-49.032,45.479l-6.272-6.752l55.304-51.309C-121.316-18.722-66.011,32.656-66.011,32.656z"/>
<g display="none">
	<path display="inline" d="M138.21-64.129v-105.149H18.345v58.043h-90.431V87.139h90.431v0.139h195.569V-64.133H138.21V-64.129z
		 M-12.473,78.73V31.029h-20.382V78.73h-30.818v-181.555h82.017V78.73L-12.473,78.73L-12.473,78.73z M205.501,78.868H98.951V-5.95
		H62.5v84.817H26.754v-190.103v-49.628h103.041v105.148h75.707L205.501,78.868L205.501,78.868z M37.654-140.539h17.527v38.98H37.654
		V-140.539z M71.238-140.539h17.521v38.98H71.238L71.238-140.539L71.238-140.539z M103.543-140.539h17.528v38.98h-17.528V-140.539z
		 M37.654-80.679h17.527v43.186H37.654V-80.679z M71.238-80.679h17.521v43.186H71.238L71.238-80.679L71.238-80.679z M103.543-80.679
		h17.528v43.186h-17.528V-80.679z M152.261,3.237H134.74v-40.032h17.521V3.237z M152.261,67.303H134.74V26.222h17.521V67.303z
		 M189.058,3.237h-17.521v-40.032h17.521V3.237z M189.058,67.303h-17.521V26.222h17.521V67.303z M-49.826-88.84h17.521v40.029
		h-17.521V-88.84z M-49.826-25.829h17.521v41.08h-17.521V-25.829z M-13.028-88.84H4.493v40.029h-17.521
		C-13.028-48.812-13.028-88.84-13.028-88.84z M-13.028-25.829H4.493v41.08h-17.521C-13.028,15.251-13.028-25.829-13.028-25.829z"/>
</g>
<path display="none" d="M242.295,16.831l33.286,30.975v29.962h-14.265V53.992h-38.041v23.776H209.01V47.806
	C209.01,47.806,242.295,16.831,242.295,16.831z M242.295,3.84l-42.796,39.824v43.614h33.286V63.502h19.02v23.776h33.286V43.664
	L242.295,3.84z M299.357,30.92l-57.061-53.01l-57.061,52.939l6.472,6.966l50.59-46.924l50.59,46.995
	C292.885,37.887,299.357,30.92,299.357,30.92z"/>
<g display="none">
	<g display="inline">
		<path d="M165.353-69.274h-23.53v-48.895c0-2.58-2.092-4.672-4.672-4.672H82.339c-2.58,0-4.672,2.092-4.672,4.672v76.925H40.918
			v-50.141c0-2.58-2.092-4.672-4.672-4.672h-52.01v-58.238c0-2.58-2.092-4.672-4.672-4.672h-63.533c-2.58,0-4.672,2.092-4.672,4.672
			V83.64c0,2.58,2.092,4.672,4.672,4.672h249.321c2.58,0,4.672-2.092,4.672-4.672V-64.603
			C170.025-67.183,167.933-69.274,165.353-69.274z M87.01-113.498h45.47V78.969H99.468v-7.474h22.735
			c2.58,0,4.672-2.092,4.672-4.672c0-2.58-2.092-4.672-4.672-4.672H99.468v-4.62h22.735c2.58,0,4.672-2.092,4.672-4.672
			c0-2.58-2.092-4.672-4.672-4.672H99.468v-4.62h22.735c2.58,0,4.672-2.092,4.672-4.672c0-2.58-2.092-4.672-4.672-4.672H99.468
			v-4.62h22.735c2.58,0,4.672-2.092,4.672-4.672s-2.092-4.672-4.672-4.672H99.468v-4.62h22.735c2.58,0,4.672-2.092,4.672-4.672
			S124.783,6.3,122.203,6.3H99.468V1.68h22.735c2.58,0,4.672-2.092,4.672-4.672s-2.092-4.672-4.672-4.672H99.361
			c-0.453-2.106-2.324-3.686-4.565-3.686H87.01V-113.498z M77.667-31.902v20.555H40.918v-5.606h29.586
			c2.58,0,4.672-2.092,4.672-4.672s-2.092-4.672-4.672-4.672H40.918v-5.606H77.667z M31.575-86.715v75.367h-47.338v-7.474h32.389
			c2.58,0,4.672-2.092,4.672-4.672s-2.092-4.672-4.672-4.672h-32.389v-7.474h32.389c2.58,0,4.672-2.092,4.672-4.672
			c0-2.58-2.092-4.672-4.672-4.672h-32.389v-7.474h32.389c2.58,0,4.672-2.092,4.672-4.672c0-2.58-2.092-4.672-4.672-4.672h-32.389
			v-7.474h32.389c2.58,0,4.672-2.092,4.672-4.672s-2.092-4.672-4.672-4.672h-32.389v-8.097
			C-15.763-86.715,31.575-86.715,31.575-86.715z M-79.296,78.968v-228.594h54.19V78.968H-79.296z M-15.763,78.968V-2.005H90.125
			v80.973H-15.763z M160.682,78.968h-18.859v-5.606h9.343c2.58,0,4.672-2.092,4.672-4.672c0-2.58-2.092-4.672-4.672-4.672h-9.343
			v-5.45h9.343c2.58,0,4.672-2.092,4.672-4.672c0-2.58-2.092-4.672-4.672-4.672h-9.343v-5.45h9.343c2.58,0,4.672-2.092,4.672-4.672
			c0-2.58-2.092-4.672-4.672-4.672h-9.343v-5.45h9.343c2.58,0,4.672-2.092,4.672-4.672s-2.092-4.672-4.672-4.672h-9.343v-5.45h9.343
			c2.58,0,4.672-2.092,4.672-4.672s-2.092-4.672-4.672-4.672h-9.343v-5.45h9.343c2.58,0,4.672-2.092,4.672-4.672
			s-2.092-4.672-4.672-4.672h-9.343v-5.45h9.343c2.58,0,4.672-2.092,4.672-4.672s-2.092-4.672-4.672-4.672h-9.343v-5.45h9.343
			c2.58,0,4.672-2.092,4.672-4.672c0-2.58-2.092-4.672-4.672-4.672h-9.343v-5.45h9.343c2.58,0,4.672-2.092,4.672-4.672
			c0-2.58-2.092-4.672-4.672-4.672h-9.343v-5.606h18.859V78.968z"/>
		<path d="M-33.827-142.773h-36.749c-2.58,0-4.672,2.092-4.672,4.672c0,2.58,2.092,4.672,4.672,4.672h36.749
			c2.58,0,4.672-2.092,4.672-4.672C-29.155-140.682-31.247-142.773-33.827-142.773z"/>
		<path d="M-33.827-125.696h-36.749c-2.58,0-4.672,2.092-4.672,4.672s2.092,4.672,4.672,4.672h36.749
			c2.58,0,4.672-2.092,4.672-4.672S-31.247-125.696-33.827-125.696z"/>
		<path d="M-33.827-108.619h-36.749c-2.58,0-4.672,2.092-4.672,4.672s2.092,4.672,4.672,4.672h36.749
			c2.58,0,4.672-2.092,4.672-4.672S-31.247-108.619-33.827-108.619z"/>
		<path d="M-33.827-91.542h-36.749c-2.58,0-4.672,2.092-4.672,4.672s2.092,4.672,4.672,4.672h36.749c2.58,0,4.672-2.092,4.672-4.672
			C-29.155-89.45-31.247-91.542-33.827-91.542z"/>
		<path d="M-33.827-74.465h-36.749c-2.58,0-4.672,2.092-4.672,4.672c0,2.58,2.092,4.672,4.672,4.672h36.749
			c2.58,0,4.672-2.092,4.672-4.672C-29.155-72.373-31.247-74.465-33.827-74.465z"/>
		<path d="M-33.827-57.389h-36.749c-2.58,0-4.672,2.092-4.672,4.672s2.092,4.672,4.672,4.672h36.749c2.58,0,4.672-2.092,4.672-4.672
			S-31.247-57.389-33.827-57.389z"/>
		<path d="M-33.827-40.311h-36.749c-2.58,0-4.672,2.092-4.672,4.672c0,2.58,2.092,4.672,4.672,4.672h36.749
			c2.58,0,4.672-2.092,4.672-4.672C-29.155-38.219-31.247-40.311-33.827-40.311z"/>
		<path d="M-33.827-23.234h-36.749c-2.58,0-4.672,2.092-4.672,4.672s2.092,4.672,4.672,4.672h36.749c2.58,0,4.672-2.092,4.672-4.672
			S-31.247-23.234-33.827-23.234z"/>
		<path d="M-33.827-6.158h-36.749c-2.58,0-4.672,2.092-4.672,4.672c0,2.58,2.092,4.672,4.672,4.672h36.749
			c2.58,0,4.672-2.092,4.672-4.672C-29.155-4.065-31.247-6.158-33.827-6.158z"/>
		<path d="M-33.827,10.92h-36.749c-2.58,0-4.672,2.092-4.672,4.672s2.092,4.672,4.672,4.672h36.749c2.58,0,4.672-2.092,4.672-4.672
			C-29.155,13.012-31.247,10.92-33.827,10.92z"/>
		<path d="M-33.827,27.997h-36.749c-2.58,0-4.672,2.092-4.672,4.672c0,2.58,2.092,4.672,4.672,4.672h36.749
			c2.58,0,4.672-2.092,4.672-4.672C-29.155,30.089-31.247,27.997-33.827,27.997z"/>
		<path d="M-33.827,45.074h-36.749c-2.58,0-4.672,2.092-4.672,4.672c0,2.58,2.092,4.672,4.672,4.672h36.749
			c2.58,0,4.672-2.092,4.672-4.672C-29.155,47.166-31.247,45.074-33.827,45.074z"/>
		<path d="M-33.827,62.151h-36.749c-2.58,0-4.672,2.092-4.672,4.672c0,2.58,2.092,4.672,4.672,4.672h36.749
			c2.58,0,4.672-2.092,4.672-4.672C-29.155,64.243-31.247,62.151-33.827,62.151z"/>
		<path d="M97.288-96.058h24.915c2.58,0,4.672-2.092,4.672-4.672s-2.092-4.672-4.672-4.672H97.288c-2.58,0-4.672,2.092-4.672,4.672
			S94.708-96.058,97.288-96.058z"/>
		<path d="M97.288-82.095h24.915c2.58,0,4.672-2.092,4.672-4.672s-2.092-4.672-4.672-4.672H97.288c-2.58,0-4.672,2.092-4.672,4.672
			S94.708-82.095,97.288-82.095z"/>
		<path d="M97.288-68.133h24.915c2.58,0,4.672-2.092,4.672-4.672s-2.092-4.672-4.672-4.672H97.288c-2.58,0-4.672,2.092-4.672,4.672
			S94.708-68.133,97.288-68.133z"/>
		<path d="M97.288-54.17h24.915c2.58,0,4.672-2.092,4.672-4.672s-2.092-4.672-4.672-4.672H97.288c-2.58,0-4.672,2.092-4.672,4.672
			S94.708-54.17,97.288-54.17z"/>
		<path d="M97.288-40.207h24.915c2.58,0,4.672-2.092,4.672-4.672c0-2.58-2.092-4.672-4.672-4.672H97.288
			c-2.58,0-4.672,2.092-4.672,4.672C92.616-42.298,94.708-40.207,97.288-40.207z"/>
		<path d="M97.288-26.245h24.915c2.58,0,4.672-2.092,4.672-4.672s-2.092-4.672-4.672-4.672H97.288c-2.58,0-4.672,2.092-4.672,4.672
			S94.708-26.245,97.288-26.245z"/>
		<path d="M97.288-12.282h24.915c2.58,0,4.672-2.092,4.672-4.672s-2.092-4.672-4.672-4.672H97.288c-2.58,0-4.672,2.092-4.672,4.672
			S94.708-12.282,97.288-12.282z"/>
		<path d="M79.225,6.952H-5.174c-2.58,0-4.672,2.092-4.672,4.672s2.092,4.672,4.672,4.672h84.399c2.58,0,4.672-2.092,4.672-4.672
			C83.896,9.044,81.805,6.952,79.225,6.952z"/>
		<path d="M79.225,24.858H-5.174c-2.58,0-4.672,2.092-4.672,4.672s2.092,4.672,4.672,4.672h84.399c2.58,0,4.672-2.092,4.672-4.672
			C83.896,26.949,81.805,24.858,79.225,24.858z"/>
		<path d="M79.225,42.764H-5.174c-2.58,0-4.672,2.092-4.672,4.672c0,2.58,2.092,4.672,4.672,4.672h84.399
			c2.58,0,4.672-2.092,4.672-4.672C83.896,44.855,81.805,42.764,79.225,42.764z"/>
		<path d="M79.225,60.668H-5.174c-2.58,0-4.672,2.092-4.672,4.672c0,2.58,2.092,4.672,4.672,4.672h84.399
			c2.58,0,4.672-2.092,4.672-4.672C83.896,62.761,81.805,60.668,79.225,60.668z"/>
	</g>
</g>
<g display="none">
	<path display="inline" d="M-84.213,6.173c0.472,0.372,1.045,0.563,1.624,0.563c0.39,0,0.781-0.087,1.145-0.263
		c0.904-0.439,1.478-1.355,1.478-2.36v-13.99c0-0.804-0.368-1.563-1-2.06l-42.706-33.647c-2.995-2.36-7.179-2.359-10.174,0
		l-16.074,12.664v-4.938c0-1.449-1.174-2.623-2.623-2.623h-11.192c-1.449,0-2.623,1.175-2.623,2.623v17.89l-10.193,8.031
		c-0.631,0.497-1,1.257-1,2.06v13.99c0,1.005,0.574,1.922,1.478,2.36c0.904,0.439,1.979,0.322,2.769-0.299l1.349-1.063v25.563
		l-24.468-19.278c-2.995-2.36-7.179-2.36-10.174,0l-34.311,27.032c-0.631,0.497-1,1.257-1,2.06v13.99
		c0,1.005,0.574,1.922,1.478,2.36c0.364,0.177,0.755,0.263,1.145,0.263c0.578,0,1.152-0.191,1.624-0.563l1.349-1.063v27.159h-2.973
		c-1.449,0-2.623,1.174-2.623,2.623s1.174,2.623,2.623,2.623H-82.59c1.449,0,2.623-1.174,2.623-2.623s-1.174-2.623-2.623-2.623
		h-2.973V5.11L-84.213,6.173L-84.213,6.173z M-161.111-35.236h5.946v6.449l-5.946,4.685V-35.236z M-172.304-8.605l41.706-32.859
		c1.083-0.853,2.597-0.853,3.68,0l41.705,32.859v7.311l-41.922-33.029c-0.476-0.375-1.05-0.563-1.624-0.563
		s-1.147,0.187-1.624,0.563l-41.922,33.029V-8.605z M-236.66,41.76l33.311-26.245c1.083-0.853,2.597-0.853,3.68,0l27.715,21.836
		v7.311l-27.931-22.007c-0.952-0.751-2.295-0.751-3.247,0l-33.528,26.416V41.76L-236.66,41.76z M-231.064,51.342l29.555-23.285
		l29.555,23.286v31.292h-11.542V51.68c0-1.449-1.174-2.623-2.623-2.623h-30.779c-1.449,0-2.623,1.175-2.623,2.623v30.954h-11.542
		V51.342L-231.064,51.342z M-214.275,65.496h25.533v5.946h-25.533V65.496z M-188.742,60.249h-25.533v-5.946h25.533V60.249z
		 M-214.275,76.688h25.533v5.946h-25.533V76.688z M-138.377,63.056c-0.058-0.004-0.116-0.009-0.175-0.009
		c-0.689,0-1.368,0.28-1.854,0.769c-0.49,0.486-0.769,1.165-0.769,1.854s0.28,1.368,0.769,1.854c0.486,0.49,1.165,0.769,1.854,0.769
		c0.058,0,0.117-0.005,0.175-0.009v14.349h-11.542V48.707h11.542V63.056z M-90.809,82.634h-42.321v-36.55
		c0-1.449-1.174-2.623-2.623-2.623h-16.789c-1.449,0-2.623,1.174-2.623,2.623v36.55h-11.542V0.976l37.949-29.899l37.949,29.899
		V82.634z"/>
	<path display="inline" d="M-121.763,71.092h16.789c1.449,0,2.623-1.174,2.623-2.623V46.084c0-1.449-1.175-2.623-2.623-2.623
		h-16.789c-1.449,0-2.623,1.174-2.623,2.623v22.385C-124.386,69.917-123.212,71.092-121.763,71.092z M-119.14,65.845v-8.744h11.542
		v8.744H-119.14z M-107.598,48.707v3.148h-11.542v-3.148H-107.598z"/>
	<path display="inline" d="M-121.763,31.919h16.789c1.449,0,2.623-1.175,2.623-2.623V6.911c0-1.449-1.175-2.623-2.623-2.623h-16.789
		c-1.449,0-2.623,1.175-2.623,2.623v22.385C-124.386,30.744-123.212,31.919-121.763,31.919z M-119.14,26.672v-8.744h11.542v8.744
		H-119.14z M-107.598,9.534v3.148h-11.542V9.534H-107.598z"/>
	<path display="inline" d="M-135.753,4.287h-16.789c-1.449,0-2.623,1.175-2.623,2.623v22.385c0,1.449,1.174,2.623,2.623,2.623
		h16.789c1.449,0,2.623-1.175,2.623-2.623V6.911C-133.13,5.462-134.305,4.287-135.753,4.287L-135.753,4.287z M-138.377,9.534v3.148
		h-11.542V9.534H-138.377z M-149.919,26.672v-8.744h11.542v8.744H-149.919z"/>
</g>
<path display="none" d="M405.641,78.351h-7.613V37.52c0-1.911-1.549-3.46-3.46-3.46h-3.922v-7.613c0-3.943-3.208-7.151-7.151-7.151
	H368.5v-44.523c0-1.911-1.549-3.46-3.46-3.46h-4.338c-1.284-5.239-5.418-9.369-10.657-10.654v-22.796c0-1.911-1.549-3.46-3.46-3.46
	s-3.46,1.549-3.46,3.46v22.796c-5.239,1.285-9.372,5.415-10.657,10.654h-0.878v-29.759c0-1.23-0.654-2.369-1.717-2.989
	l-42.575-24.835v-9.085c0-1.911-1.549-3.46-3.46-3.46s-3.46,1.549-3.46,3.46v55.596h-22.377c-1.911,0-3.46,1.549-3.46,3.46V5.29
	L212.87,15.708c-1.541,0.385-2.621,1.769-2.621,3.357v59.287h-11.304c-1.911,0-3.46,1.549-3.46,3.46s1.549,3.46,3.46,3.46h206.696
	c1.911,0,3.46-1.549,3.46-3.46S407.552,78.351,405.641,78.351L405.641,78.351z M353.967,34.059c-1.911,0-3.46,1.549-3.46,3.46
	v22.377H331.59V29.907h26.298v4.152H353.967z M391.107,63.587h-33.68v-7.843h33.68V63.587z M358.786,22.986H331.59V-7.003h29.989
	v27.196C360.407,20.844,359.437,21.814,358.786,22.986z M331.59,66.817h18.916v11.534H331.59V66.817z M357.427,70.508h33.68v7.843
	h-33.68V70.508z M391.107,48.823h-33.68V40.98h33.68V48.823z M383.725,26.447v7.613h-18.916v-7.613c0-0.127,0.103-0.231,0.231-0.231
	h18.455C383.622,26.216,383.725,26.319,383.725,26.447z M335.512-21.767c1.911,0,3.46-1.549,3.46-3.46
	c0-4.198,3.415-7.613,7.613-7.613s7.613,3.415,7.613,7.613c0,1.911,1.549,3.46,3.46,3.46h3.922v7.843H331.59v-7.843H335.512z
	 M287.298-78.258l37.371,21.8v134.81h-7.843V-51.064c0-1.911-1.549-3.46-3.46-3.46s-3.46,1.549-3.46,3.46V78.351h-7.843V-36.3
	c0-1.911-1.549-3.46-3.46-3.46h-11.304V-78.258z M295.141,40.98v7.843h-33.68V40.98H295.141z M261.461,34.059v-7.843h33.68v7.843
	H261.461z M295.141,4.531h-33.68v-7.843h33.68V4.531z M295.141,11.452v7.843h-33.68v-7.843H295.141z M261.461,55.744h33.68v7.843
	h-33.68V55.744z M295.141-10.233h-33.68v-7.843h33.68V-10.233z M261.461,70.508h33.68v7.843h-33.68V70.508z M295.141-32.84v7.843
	h-33.68v-7.843H295.141z M217.169,21.767l37.371-9.343v65.928h-7.843V30.138c0-1.911-1.549-3.46-3.46-3.46s-3.46,1.549-3.46,3.46
	v48.214h-7.843V33.829c0-1.911-1.549-3.46-3.46-3.46s-3.46,1.549-3.46,3.46v44.523h-7.843V21.767z"/>
<g display="none">
	<path display="inline" d="M388.266,80.25H348.25c0,0-23.365-84.754-25.698-74.767l-45.186-25.417c-1.149-0.646-2.552-0.646-3.702,0
		L247.077-4.979v-3.864h0.252c2.085,0,3.775-1.69,3.775-3.775s-1.69-3.775-3.775-3.775h-24.161c-2.085,0-3.775,1.69-3.775,3.775
		s1.69,3.775,3.775,3.775h0.252V8.329l-3.781,2.127c-0.806-3.332-1.743-6.773-2.791-10.127
		c-5.212-16.671-11.048-24.775-17.84-24.775s-12.628,8.104-17.84,24.775c-3.749,11.991-6.069,25.085-6.069,30.342
		c0,10.396,8.738,19.04,20.134,20.626V80.25h-32.466c-2.085,0-3.775,1.69-3.775,3.775c0,2.085,1.69,3.775,3.775,3.775h225.499
		c2.085,0,3.775-1.69,3.775-3.775C392.041,81.94,390.35,80.25,388.266,80.25z M283.821,56.089h-0.252
		c-2.085,0-3.775,1.69-3.775,3.775s1.69,3.775,3.775,3.775h0.252v16.61h-16.61V39.479h16.61V56.089z M291.371,35.704
		c0-2.085-1.69-3.775-3.775-3.775h-24.161c-2.085,0-3.775,1.69-3.775,3.775V80.25H218.89V42.257c1.97-2.572,3.3-5.546,3.8-8.748
		l52.826-29.715l45.029,25.329c0.183,1.048,2.963,5.585,3.245,6.596c-0.442-0.182-3.472-3.79-3.98-3.79h-16.107
		c-2.085,0-3.775,1.69-3.775,3.775v28.187c0,2.085,1.69,3.775,3.775,3.775h16.107c2.085,0,3.775-1.69,3.775-3.775l0.205-28.172
		c0.636,0.998,2.871-1.488,3.75-1c2.25,1.25,4.5,9.5,4.602,13.903V80.25h-40.771L291.371,35.704L291.371,35.704z M316.036,44.009
		h-8.557v-4.53h8.557V44.009z M307.479,51.559h8.557v8.557h-8.557V51.559z M339.693,53.109c2.686,1.127,8.557,27.141,8.557,27.141
		h-8.557V53.109z M230.97-8.842h8.557v8.111l-8.557,4.813V-8.842z M275.517-12.313l45.48,25.583
		c-0.403,2.494-0.675,4.823-0.817,6.985L277.367-3.827c-1.149-0.646-2.552-0.646-3.702,0l-51.225,28.814
		c-0.269-2.019-0.647-4.324-1.124-6.812L275.517-12.313L275.517-12.313z M182.649,30.67c0-3.996,2.039-16.298,5.725-28.089
		c4.996-15.978,9.37-19.477,10.634-19.477s5.638,3.499,10.634,19.477c3.687,11.791,5.725,24.093,5.725,28.089
		c0,6.295-5.378,11.582-12.584,12.976v-11.97c0-2.085-1.69-3.775-3.775-3.775s-3.775,1.69-3.775,3.775v11.97
		C188.027,42.253,182.649,36.966,182.649,30.67z M202.783,51.297c3.088-0.43,5.98-1.377,8.557-2.737V80.25h-8.557V51.297z"/>
	<path display="inline" d="M223.038,28.21h-16.107c-2.085,0-3.775,1.69-3.775,3.775v28.187c0,2.085,1.69,3.775,3.775,3.775h16.107
		c2.085,0,3.775-1.69,3.775-3.775V31.985C226.813,29.9,225.123,28.21,223.038,28.21z M219.263,35.76v4.53h-8.557v-4.53H219.263z
		 M210.706,56.397v-8.557h8.557v8.557H210.706z"/>
</g>
<g display="none">
	<path display="inline" fill="#DDDDDD" d="M101.102-168.824l7.352-12.356c1.668-2.996,5.344-4.016,8.34-2.348
		c2.996,1.668,4.016,5.344,2.348,8.34l-7.352,12.356c-0.988,2.008-3.336,2.996-5.344,2.996c-0.988,0-2.008-0.34-2.996-0.68
		C100.422-162.152,99.434-165.797,101.102-168.824z M-6.98-162.8c0.988,2.008,3.336,2.996,5.344,2.996
		c0.988,0,2.008-0.34,2.996-0.68c2.996-1.668,4.016-5.344,2.348-8.34l-7.352-12.356c-1.668-2.996-5.344-4.016-8.34-2.348
		s-4.016,5.344-2.348,8.34L-6.98-162.8z M52.389-174.137c3.336,0,5.993-2.656,5.993-5.992v-14.333c0-3.336-2.656-5.993-5.993-5.993
		s-5.993,2.656-5.993,5.993v14.333C46.057-176.824,48.713-174.137,52.389-174.137z M-55.692-78.411h-14.333
		c-3.336,0-5.993,2.656-5.993,5.993c0,3.336,2.656,5.993,5.993,5.993h14.333c3.336,0,5.993-2.656,5.993-5.993
		C-49.7-75.754-52.356-78.411-55.692-78.411z M174.835-78.411h-14.333c-3.336,0-5.992,2.656-5.992,5.993
		c0,3.336,2.656,5.993,5.992,5.993h14.333c3.336,0,5.993-2.656,5.993-5.993C180.827-75.754,178.171-78.411,174.835-78.411z
		 M163.807-136.451c-1.668-2.996-5.344-4.016-8.34-2.348l-12.356,7.352c-2.996,1.668-4.016,5.344-2.348,8.34
		c0.988,2.008,3.336,2.996,5.344,2.996c0.988,0,2.008-0.34,2.996-0.68l12.356-7.352
		C164.487-129.779,165.475-133.455,163.807-136.451z M131.126-73.067c0,13.684-3.676,27.028-10.348,39.044
		c-0.34,0.988-0.68,1.668-1.328,2.348l-0.68,0.988c-2.656,4.016-5.344,8.001-8.68,11.337C98.414-3.009,92.422,11.015,92.731,20.003
		v0.34c0,0.68,0.34,1.668,0.34,2.656v28.696c0,12.665-10.348,22.673-22.673,22.673H33.393c-12.665,0-22.673-10.348-22.673-22.673V23
		c0-0.68,0-0.988,0-1.668c0-0.34,0-0.988,0-1.328c0.34-8.68-5.684-22.364-16.68-38.365c-3.676-4.016-7.352-8.34-10.008-13.344
		c-0.34-0.68-0.68-0.988-0.988-1.668c-7.012-12.016-10.688-25.7-10.688-39.353c0-43.708,35.708-79.385,79.385-79.385
		C95.418-152.452,131.126-116.775,131.126-73.067z M80.746,26.335H23.045v11.337h57.701V26.335L80.746,26.335z M80.746,52.375
		v-2.348H23.045v2.348c0.68,5.344,5.004,9.329,10.348,9.329h37.036C75.742,61.703,80.097,57.719,80.746,52.375z M118.77-73.067
		c0-37.036-30.024-67.061-67.061-67.061s-67.061,30.025-67.061,67.061c0,12.016,3.336,23.692,9.329,34.04l0,0c0,0,0,0,0,0.34
		c2.656,4.324,5.684,8.34,9.02,12.016c0.34,0.34,0.34,0.34,0.68,0.68c10.997,15.692,17.36,29.036,19.028,40.033h58.381
		c2.008-13.684,11.337-29.345,19.677-41.021c0-0.34,0.34-0.34,0.68-0.68c2.996-2.996,5.684-6.672,7.661-10.348
		c0-0.34,0.34-0.34,0.34-0.68c0-0.34,0.34-0.34,0.34-0.68C115.774-49.374,118.77-61.05,118.77-73.067z M-38.333-131.447
		l-12.356-7.352c-2.996-1.668-6.672-0.68-8.34,2.348c-1.668,2.996-0.68,6.672,2.348,8.34l12.356,7.352
		c0.988,0.68,2.008,0.68,2.996,0.68c2.008,0,4.324-0.988,5.344-2.996C-34.348-126.103-35.336-129.779-38.333-131.447z"/>
</g>
<g display="none">
	<path display="inline" fill="#D3D3D3" d="M29.342-45.978l37.653-37.824c1.544-1.544,0.441-4.18-1.74-4.18h-3.003
		c-2.047,0-3.199-2.366-1.924-3.971l19.966-25.175c1.275-1.606,0.135-3.971-1.924-3.971H68.331c-2.022,0-3.174-2.304-1.961-3.922
		l25.506-33.927c1.213-1.618,0.061-3.922-1.961-3.922H49.578c-0.932,0-1.79,0.527-2.194,1.361l-19.721,39.896
		c-0.809,1.63,0.38,3.542,2.194,3.542h9.095c1.814,0,3.003,1.912,2.194,3.542L27.663-87.246c-0.809,1.63,0.38,3.542,2.194,3.542
		h8.567c1.814,0,2.991,1.888,2.206,3.518L25.408-48.772C24.194-46.284,27.393-44.016,29.342-45.978z"/>
</g>
<g>
	<path fill="#0E436E" d="M87.048,82.193h-4.294V-51.435c0-2.093-1.697-3.789-3.789-3.789H57.23
		c-2.229-4.824-7.127-8.083-12.62-8.083s-10.391,3.259-12.62,8.083H14.045V-79.98h0.253c2.093,0,3.789-1.697,3.789-3.789
		c0-2.093-1.697-3.789-3.789-3.789h-76.792c-2.093,0-3.789,1.697-3.789,3.789c0,2.093,1.697,3.789,3.789,3.789h0.253v57.089h-73.003
		c-2.093,0-3.789,1.697-3.789,3.789s1.697,3.789,3.789,3.789h0.253v97.506h-4.294c-2.093,0-3.789,1.697-3.789,3.789
		c0,2.093,1.697,3.789,3.789,3.789h80.834h68.709h76.792c2.093,0,3.789-1.697,3.789-3.789C90.837,83.89,89.141,82.193,87.048,82.193
		z"/>
	<path fill="#FFFFFF" d="M34.709-47.646c1.802,0,3.355-1.269,3.713-3.035c0.594-2.925,3.196-5.048,6.187-5.048
		c2.991,0,5.593,2.123,6.187,5.048c0.359,1.766,1.911,3.035,3.713,3.035h20.665v129.84H14.045v-129.84H34.709z"/>
	<rect x="-127.415" y="-15.313" fill="#FFFFFF" width="65.172" height="4.547"/>
	<rect x="-127.415" y="-3.187" fill="#FFFFFF" width="65.172" height="85.381"/>
	<rect x="-54.664" y="-79.98" fill="#FFFFFF" width="61.131" height="162.173"/>
	<path fill="#0E436E" d="M22.381,69.563h16.167c2.093,0,3.789-1.697,3.789-3.789V29.399c0-2.093-1.697-3.789-3.789-3.789H22.381
		c-2.093,0-3.789,1.697-3.789,3.789v36.375C18.592,67.867,20.288,69.563,22.381,69.563z M26.17,61.985v-12.63h8.589v12.63H26.17z
		 M34.758,33.188v8.589H26.17v-8.589H34.758z"/>
	<path fill="#0E436E" d="M50.673,69.563h16.167c2.093,0,3.789-1.697,3.789-3.789V29.399c0-2.093-1.697-3.789-3.789-3.789H50.673
		c-2.093,0-3.789,1.697-3.789,3.789v36.375C46.884,67.867,48.58,69.563,50.673,69.563z M54.462,61.985v-12.63h8.589v12.63H54.462z
		 M63.05,33.188v8.589h-8.589v-8.589H63.05z"/>
	<path fill="#0E436E" d="M22.381,12.979h16.167c2.093,0,3.789-1.697,3.789-3.789v-35.365c0-2.646-2.153-4.8-4.8-4.8H23.391
		c-2.646,0-4.8,2.153-4.8,4.8V9.19C18.592,11.283,20.288,12.979,22.381,12.979z M26.17,5.401v-12.63h8.589v12.63H26.17z
		 M34.758-23.396v8.589H26.17v-8.589H34.758z"/>
	<path fill="#0E436E" d="M50.673,12.979h16.167c2.093,0,3.789-1.697,3.789-3.789v-35.365c0-2.646-2.153-4.8-4.8-4.8H51.683
		c-2.646,0-4.8,2.153-4.8,4.8V9.19C46.884,11.283,48.58,12.979,50.673,12.979z M54.462,5.401v-12.63h8.589v12.63H54.462z
		 M63.05-23.396v8.589h-8.589v-8.589H63.05z"/>
	<path fill="#0E436E" d="M-30.161,29.651h-16.167c-2.093,0-3.789,1.697-3.789,3.789v32.334c0,2.093,1.697,3.789,3.789,3.789h16.167
		c2.093,0,3.789-1.697,3.789-3.789V33.44C-26.372,31.348-28.069,29.651-30.161,29.651z M-33.95,37.229v4.547h-8.589v-4.547H-33.95z
		 M-42.539,61.985v-12.63h8.589v12.63H-42.539z"/>
	<path fill="#0E436E" d="M-1.869,29.651h-16.167c-2.093,0-3.789,1.697-3.789,3.789v32.334c0,2.093,1.697,3.789,3.789,3.789h16.167
		c2.093,0,3.789-1.697,3.789-3.789V33.44C1.92,31.348,0.223,29.651-1.869,29.651z M-5.659,37.229v4.547h-8.589v-4.547H-5.659z
		 M-14.247,61.985v-12.63h8.589v12.63H-14.247z"/>
	<path fill="#0E436E" d="M-30.161-18.849h-16.167c-2.093,0-3.789,1.697-3.789,3.789v32.334c0,2.093,1.697,3.789,3.789,3.789h16.167
		c2.093,0,3.789-1.697,3.789-3.789V-15.06C-26.372-17.153-28.069-18.849-30.161-18.849z M-33.95-11.271v4.547h-8.589v-4.547H-33.95z
		 M-42.539,13.485V0.854h8.589v12.63H-42.539z"/>
	<path fill="#0E436E" d="M-1.869-18.849h-16.167c-2.093,0-3.789,1.697-3.789,3.789v32.334c0,2.093,1.697,3.789,3.789,3.789h16.167
		c2.093,0,3.789-1.697,3.789-3.789V-15.06C1.92-17.153,0.223-18.849-1.869-18.849z M-5.659-11.271v4.547h-8.589v-4.547H-5.659z
		 M-14.247,13.485V0.854h8.589v12.63H-14.247z"/>
	<path fill="#0E436E" d="M-30.161-67.349h-16.167c-2.093,0-3.789,1.697-3.789,3.789v32.334c0,2.093,1.697,3.789,3.789,3.789h16.167
		c2.093,0,3.789-1.697,3.789-3.789V-63.56C-26.372-65.653-28.069-67.349-30.161-67.349z M-33.95-59.771v4.547h-8.589v-4.547H-33.95z
		 M-42.539-35.016v-12.63h8.589v12.63H-42.539z"/>
	<path fill="#0E436E" d="M-1.869-67.349h-16.167c-2.093,0-3.789,1.697-3.789,3.789v32.334c0,2.093,1.697,3.789,3.789,3.789h16.167
		c2.093,0,3.789-1.697,3.789-3.789V-63.56C1.92-65.653,0.223-67.349-1.869-67.349z M-5.659-59.771v4.547h-8.589v-4.547H-5.659z
		 M-14.247-35.016v-12.63h8.589v12.63H-14.247z"/>
	<path fill="#0E436E" d="M-70.578,5.401h-48.5c-2.093,0-3.789,1.697-3.789,3.789v60.625c0,2.093,1.697,3.789,3.789,3.789h48.5
		c2.093,0,3.789-1.697,3.789-3.789V9.19C-66.789,7.098-68.486,5.401-70.578,5.401z M-115.29,33.188h16.672v12.63h-16.672V33.188z
		 M-91.039,33.188h16.672v12.63h-16.672V33.188z M-74.367,25.61h-16.672v-12.63h16.672V25.61z M-98.618,12.979v12.63h-16.672v-12.63
		H-98.618z M-115.29,53.396h16.672v12.63h-16.672V53.396z M-91.039,66.027v-12.63h16.672v12.63H-91.039z"/>
	<path fill="#0E436E" d="M-122.411,82.19h-32.466V57.026c15.85-1.874,28.187-15.386,28.187-31.732
		c0-28.412-27.415-83.894-28.582-86.242c-0.638-1.284-1.947-2.095-3.38-2.095s-2.743,0.811-3.38,2.095
		c-0.071,0.143-7.196,14.519-14.22,32.118c-5.575,13.97-9.539,25.996-11.872,35.984l-45.186-25.417
		c-1.149-0.646-2.552-0.646-3.702,0l-26.588,14.955v-3.864h0.252c2.085,0,3.775-1.69,3.775-3.775s-1.69-3.775-3.775-3.775h-24.161
		c-2.085,0-3.775,1.69-3.775,3.775s1.69,3.775,3.775,3.775h0.252V10l-3.781,2.127c-0.806-3.332-1.743-6.773-2.791-10.127
		c-5.212-16.671-11.048-24.775-17.84-24.775S-324.297-14.671-329.508,2c-3.749,11.991-6.069,25.085-6.069,30.342
		c0,10.396,8.738,19.04,20.134,20.626v28.953h-32.466c-2.085,0-3.775,1.69-3.775,3.775c0,2.085,1.68,4.054,3.765,4.054h225.509
		c2.085,0,3.775-1.969,3.775-4.054C-118.636,83.611-120.326,82.19-122.411,82.19z"/>
	<path fill="#F5A623" d="M-226.855,57.76h-0.252c-2.085,0-3.775,1.69-3.775,3.775s1.69,3.775,3.775,3.775h0.252v16.61h-16.61V41.15
		h16.61V57.76z"/>
	<path fill="#FFFFFF" d="M-219.305,37.375c0-2.085-1.69-3.775-3.775-3.775h-24.161c-2.085,0-3.775,1.69-3.775,3.775v44.546h-40.771
		V43.928c1.97-2.572,3.3-5.546,3.8-8.748l52.826-29.715l45.029,25.329c0.183,1.048,0.416,2.078,0.698,3.089
		c-0.442-0.182-0.926-0.283-1.434-0.283h-16.107c-2.085,0-3.775,1.69-3.775,3.775v28.187c0,2.085,1.69,3.775,3.775,3.775h16.107
		c2.085,0,3.775-1.69,3.775-3.775V39.854c2.087,4.06,5.015,7.616,8.557,10.438v31.628h-40.771L-219.305,37.375L-219.305,37.375z"/>
	<rect x="-203.197" y="41.15" fill="#FFFFFF" width="8.557" height="4.53"/>
	<rect x="-203.197" y="53.23" fill="#FFFFFF" width="8.557" height="8.557"/>
	<path fill="#FFFFFF" d="M-170.983,54.78c2.686,1.127,5.559,1.892,8.557,2.247v24.894h-8.557V54.78z"/>
	<path fill="#F5A623" d="M-158.651-50.488c7.408,15.948,24.412,54.837,24.412,75.782c0,12.177-8.963,22.299-20.637,24.119V37.376
		c0-0.001,0-0.002,0-0.003V26.858l10.974-10.974c1.474-1.474,1.474-3.865,0-5.338c-1.474-1.474-3.865-1.474-5.338,0l-5.636,5.635
		V9.187c0-2.085-1.69-3.775-3.775-3.775s-3.775,1.69-3.775,3.775v16.106c0,0.001,0,0.002,0,0.003v2.965l-5.636-5.636
		c-1.474-1.474-3.865-1.474-5.338,0c-1.474,1.474-1.474,3.865,0,5.338l10.974,10.975v10.476
		c-11.675-1.82-20.637-11.942-20.637-24.119C-183.063,4.349-166.059-34.54-158.651-50.488L-158.651-50.488z"/>
	<polygon fill="#0E436E" points="-279.706,-7.171 -271.149,-7.171 -271.149,0.94 -279.706,5.753 	"/>
	<path fill="#FFFFFF" d="M-235.16-10.642l45.48,25.583c-0.403,2.494-0.675,4.823-0.817,6.985l-42.813-24.082
		c-1.149-0.646-2.552-0.646-3.702,0l-51.225,28.814c-0.269-2.019-0.647-4.324-1.124-6.812L-235.16-10.642L-235.16-10.642z"/>
	<path fill="#F5A623" d="M-328.027,32.341c0-3.996,2.039-16.298,5.725-28.089c4.996-15.978,9.37-19.477,10.634-19.477
		c1.264,0,5.638,3.499,10.634,19.477c3.686,11.791,5.725,24.093,5.725,28.089c0,6.295-5.378,11.582-12.584,12.976v-11.97
		c0-2.085-1.69-3.775-3.775-3.775c-2.085,0-3.775,1.69-3.775,3.775v11.97C-322.649,43.924-328.027,38.637-328.027,32.341z"/>
	<path fill="#FFFFFF" d="M-307.893,52.967c3.088-0.43,5.98-1.377,8.557-2.737v31.691h-8.557V52.967z"/>
	<path fill="#0E436E" d="M-263.348,33.6h-16.107c-2.085,0-3.775,1.69-3.775,3.775v28.187c0,2.085,1.69,3.775,3.775,3.775h16.107
		c2.085,0,3.775-1.69,3.775-3.775V37.375C-259.573,35.29-261.263,33.6-263.348,33.6z"/>
	<rect x="-275.68" y="41.15" fill="#FFFFFF" width="8.557" height="4.53"/>
	<rect x="-275.68" y="53.23" fill="#FFFFFF" width="8.557" height="8.557"/>
	<path fill="#0E436E" d="M293.986,82.359h-20.107V73.41c6.831-1.888,11.915-8.844,11.915-17.116c0-9.718-7.016-17.625-15.639-17.625
		c-8.623,0-15.639,7.906-15.639,17.625c0,8.272,5.084,15.228,11.915,17.116v8.949h-16.384V44.084
		c7.253-5.053,11.915-12.832,11.915-21.55c0-7.235-3.339-25.751-8.31-41.784c-6.975-22.496-14.569-33.431-23.216-33.431
		c-6.499,0-12.398,6.211-17.923,18.913c-10.382-29.802-25.477-58.77-26.44-60.608c-0.643-1.226-1.913-1.994-3.298-1.994
		c-1.385,0-2.655,0.768-3.298,1.995c-0.079,0.152-8.069,15.432-16.405,34.963c-10.178,23.847-16.483,43.469-18.783,58.432
		c-0.354-0.042-0.708-0.067-1.067-0.067c-6.511,0-12.154,6.942-17.245,21.207c-0.921-7.101-2.822-16.964-5.29-25.862
		c-3.23-11.642-8.559-27.12-17.514-27.12S88.891-17.345,85.662-5.703c-3.532,12.73-5.904,27.445-5.904,33.202
		c0,11.289,8.629,20.671,19.859,22.329v32.531H71.567c-2.057,0-3.724,1.667-3.724,3.724s1.667,3.724,3.724,3.724h222.42
		c2.057,0,3.724-1.667,3.724-3.724S296.043,82.359,293.986,82.359L293.986,82.359z"/>
	<path fill="#F5A623" d="M261.964,56.294c0-5.612,3.675-10.178,8.192-10.178c4.517,0,8.192,4.566,8.192,10.178
		s-3.675,10.178-8.192,10.178C265.639,66.472,261.964,61.906,261.964,56.294z"/>
	<path fill="#FFFFFF" d="M242.601,82.359h-8.44V49.889c2.956-0.305,5.79-0.965,8.44-1.937V82.359z"/>
	<path fill="#FFFFFF" d="M130.895,63.176c2.533,1.253,5.387,2.13,8.44,2.537v16.645h-8.44V63.176z"/>
	<path fill="#FFFFFF" d="M146.782,65.761c4.758-0.579,9.046-2.304,12.412-4.804v21.402h-12.412V65.761z"/>
	<path fill="#FFFFFF" d="M166.641,46.643c3.922,1.759,8.108,2.861,12.412,3.265v32.451h-12.412V46.643z"/>
	<path fill="#FFFFFF" d="M186.5,49.907c5.94-0.559,11.499-2.439,16.384-5.344v37.795H186.5V49.907L186.5,49.907z"/>
	<path fill="#F5A623" d="M218.376,27.653l8.338,8.338v6.404c-5.339-0.689-10.206-2.85-13.914-6.199
		C215.005,33.613,216.89,30.747,218.376,27.653z"/>
	<path fill="#FFFFFF" d="M210.331,43.762c4.657,3.379,10.319,5.512,16.384,6.133v32.463h-16.384V43.762z"/>
	<path fill="#F5A623" d="M223.87-39.44c2.408-3.683,4.802-5.795,6.568-5.795c0.97,0,3.652,0.729,7.609,7.479
		c2.878,4.909,5.814,12.07,8.493,20.71c5.136,16.565,7.976,33.917,7.976,39.579c0,10.03-8.84,18.366-20.355,19.866v-7.948
		c0-0.001,0-0.003,0-0.005v-6.399l10.825-10.825c1.454-1.454,1.454-3.812,0-5.266c-1.455-1.454-3.812-1.454-5.266,0l-5.559,5.559
		v-6.897c0-2.056-1.667-3.724-3.724-3.724s-3.724,1.667-3.724,3.724v14.841l-5.559-5.559c-0.006-0.006-0.012-0.011-0.018-0.017
		c0.718-2.974,1.109-6.074,1.109-9.266c0-9.469-2.456-21.131-6.088-33.203C218.675-29.792,221.268-35.464,223.87-39.44L223.87-39.44
		z"/>
	<path fill="#F5A623" d="M182.776-84.38c8.776,17.777,32.022,67.47,32.022,94.999c0,16.397-12.39,29.947-28.299,31.799V26.508
		c0-0.001,0-0.003,0-0.005v-10.37l14.797-14.797c1.454-1.454,1.454-3.812,0-5.266c-1.455-1.454-3.812-1.454-5.266,0l-9.531,9.53
		V-9.241c0-2.056-1.667-3.724-3.724-3.724c-2.057,0-3.724,1.667-3.724,3.724v23.828c0,0.001,0,0.003,0,0.005v2.923l-9.53-9.53
		c-1.455-1.454-3.812-1.454-5.266,0c-1.454,1.454-1.454,3.812,0,5.266l14.796,14.797v14.374c-4.879-0.566-9.556-2.24-13.696-4.929
		c-0.02-0.013-0.042-0.023-0.063-0.036c-1.035-5.04-2.625-11.048-4.632-16.76c-2.929-8.337-6.042-14.229-9.397-17.759
		C154.732-25.402,174.773-68.168,182.776-84.38L182.776-84.38z"/>
	<path fill="#F5A623" d="M132.811,23.166c4.66-13.263,8.849-16.767,10.413-16.767c1.563,0,5.752,3.505,10.413,16.767
		c3.579,10.184,5.558,20.768,5.558,24.192c0,5.203-5.401,9.708-12.412,10.875v-7.896c0-2.056-1.667-3.724-3.724-3.724
		s-3.724,1.667-3.724,3.724v7.841c-6.85-1.251-12.081-5.699-12.081-10.82C127.254,43.934,129.233,33.35,132.811,23.166z"/>
	<path fill="#F5A623" d="M87.205,27.498c0-4.458,2.006-18.137,5.633-31.211c4.99-17.987,9.423-21.664,10.337-21.664
		c0.914,0,5.348,3.677,10.337,21.664c3.627,13.074,5.632,26.753,5.632,31.211c0,7.078-5.149,13.035-12.081,14.686v-7.736
		c0-2.056-1.667-3.724-3.724-3.724s-3.724,1.667-3.724,3.724v7.809C92.519,40.719,87.205,34.688,87.205,27.498z"/>
	<path fill="#FFFFFF" d="M107.064,49.771c5.127-0.831,9.692-3.273,13.118-6.768c-0.245,1.766-0.375,3.255-0.375,4.355
		c0,3.658,1.339,7.07,3.641,9.951v25.05h-16.384V49.771z"/>
	<path fill="#0E436E" d="M411.113,25.014h-67.409V13.79h1.626c1.871,0,3.387-1.516,3.387-3.387v-10.96
		c0-1.87-1.516-3.387-3.387-3.387h-80.386c-1.87,0-3.387,1.516-3.387,3.387v10.96c0,1.87,1.516,3.387,3.387,3.387h1.626V86.33
		c0,1.87,1.516,3.387,3.387,3.387h70.361c1.87,0,3.387-1.516,3.387-3.387V42.748h54.433V86.33c0,1.87,1.516,3.387,3.387,3.387
		c1.87,0,3.387-1.516,3.387-3.387V42.748h6.203c1.871,0,3.387-1.516,3.387-3.387V28.4C414.5,26.529,412.984,25.014,411.113,25.014z"
		/>
	<rect x="343.704" y="31.787" fill="#FFFFFF" width="64.023" height="4.187"/>
	<polygon fill="#FFFFFF" points="268.33,7.016 268.33,2.829 341.943,2.829 341.943,7.016 340.317,7.016 269.956,7.016 	"/>
	<path fill="#FFFFFF" d="M273.342,13.79h63.588V28.4v10.96v43.583h-19.975V59.159c0-1.87-1.516-3.387-3.387-3.387h-16.864
		c-1.871,0-3.387,1.516-3.387,3.387v23.785h-19.975C273.342,82.943,273.342,13.79,273.342,13.79z"/>
	<rect x="300.091" y="62.545" fill="#F5A623" width="10.091" height="20.398"/>
	<path fill="#0E436E" d="M389.182,60.183v-6.606c0-4.536-3.691-8.227-8.227-8.227h-19.269c-4.536,0-8.227,3.691-8.227,8.227v6.606
		c-2.812,1.023-4.828,3.715-4.828,6.876v13.445c0,1.87,1.516,3.387,3.387,3.387h1.941v0.622c0,1.87,1.516,3.387,3.387,3.387
		c1.871,0,3.387-1.516,3.387-3.387v-0.622h21.177v0.622c0,1.87,1.516,3.387,3.387,3.387s3.387-1.516,3.387-3.387v-0.622h1.941
		c1.87,0,3.387-1.516,3.387-3.387V67.059C394.01,63.898,391.993,61.207,389.182,60.183z"/>
	<path fill="#F5A623" d="M355.404,77.116V67.058c0-0.302,0.246-0.549,0.549-0.549h30.734c0.302,0,0.549,0.246,0.549,0.549v10.058
		H355.404z"/>
	<path fill="#FFFFFF" d="M361.686,52.124h19.269c0.801,0,1.453,0.652,1.453,1.453v6.159h-22.176v-6.159
		C360.232,52.776,360.885,52.124,361.686,52.124L361.686,52.124z"/>
	<path fill="#292B76" d="M360.464,69.938c-0.89,0-1.762,0.358-2.395,0.992c-0.629,0.629-0.992,1.505-0.992,2.395
		s0.363,1.761,0.992,2.395c0.634,0.629,1.505,0.992,2.395,0.992c0.895,0,1.766-0.363,2.394-0.992
		c0.629-0.629,0.992-1.505,0.992-2.395c0-0.895-0.363-1.766-0.992-2.395C362.229,70.296,361.358,69.938,360.464,69.938z"/>
	<path fill="#292B76" d="M382.173,69.938c-0.891,0-1.762,0.358-2.395,0.992c-0.629,0.629-0.992,1.5-0.992,2.395
		c0,0.89,0.363,1.761,0.992,2.395c0.634,0.629,1.504,0.992,2.395,0.992c0.89,0,1.766-0.363,2.394-0.992
		c0.629-0.634,0.992-1.505,0.992-2.395c0-0.895-0.363-1.766-0.992-2.395C383.939,70.296,383.068,69.938,382.173,69.938
		L382.173,69.938z"/>
	<path fill="#292B76" d="M288.677,23.677c-1.87,0-3.387,1.516-3.387,3.387v7.142c0,1.87,1.516,3.387,3.387,3.387
		s3.387-1.516,3.387-3.387v-7.142C292.064,25.194,290.548,23.677,288.677,23.677z"/>
	<path fill="#292B76" d="M305.136,37.593c1.87,0,3.387-1.516,3.387-3.387v-7.142c0-1.87-1.516-3.387-3.387-3.387
		s-3.387,1.516-3.387,3.387v7.142C301.75,36.077,303.266,37.593,305.136,37.593z"/>
	<path fill="#292B76" d="M321.595,37.593c1.871,0,3.387-1.516,3.387-3.387v-7.142c0-1.87-1.516-3.387-3.387-3.387
		c-1.87,0-3.387,1.516-3.387,3.387v7.142C318.209,36.077,319.725,37.593,321.595,37.593z"/>
	
		<line display="none" fill="#0E436E" stroke="#0E436E" stroke-width="8" stroke-linecap="round" stroke-linejoin="round" stroke-miterlimit="10" x1="-340.685" y1="85.696" x2="418.726" y2="85.696"/>
</g>
</svg>
