<?xml version="1.0" encoding="UTF-8" standalone="no"?>
<svg width="122px" height="131px" viewBox="0 0 122 131" version="1.1" xmlns="http://www.w3.org/2000/svg" xmlns:xlink="http://www.w3.org/1999/xlink">
    <!-- Generator: Sketch 3.6 (26304) - http://www.bohemiancoding.com/sketch -->
    <title>Group 2</title>
    <desc>Created with Sketch.</desc>
    <defs>
        <path id="path-1" d="M113,61 L63,27 C61.9054319,25.7735798 60.0945681,25.7735798 59,27 L9,61 C8.54310127,61.3227528 8,62.3184241 8,63 L8,121 C8,122.491815 9.64930171,124 12,124 L110,124 C112.350698,124 114,122.491815 114,121 L114,63 C114,62.3184241 113.457425,61.3227528 113,61 L113,61 Z"></path>
    </defs>
    <g id="Page-1" stroke="none" stroke-width="1" fill="none" fill-rule="evenodd">
        <g id="Group-2">
            <g id="Group">
                <path d="M112.740328,122.610776 L7.50461328,122.610776 L7.50461328,62.4917141 L60.1221672,26.2569108 L112.739721,62.4917141 L112.739721,122.610776 M112.740328,122.610776 L7.50461328,122.610776 L7.50461328,62.4917141 L60.1221672,26.2569108 L112.739721,62.4917141 L112.739721,122.610776" id="Shape" fill="#2B2A13"></path>
                <path d="M7,46 L61,9 L115,46 C115.971881,46.7446482 116.867705,47 118,47 C119.042152,47 120.311689,46.4665367 121,45 C122.555185,43.7403785 122.182077,41.303434 120,40 L64,1 C62.0419692,-0.2611805 59.9577712,-0.2611805 58,1 L2,40 C-0.182336405,41.303434 -0.55483911,43.7398234 1,45 C2.26406754,47.1665338 4.9224649,47.5079281 7,46 L7,46 Z" id="Shape" fill="#0E436E"></path>
            </g>
            <g id="Path">
                <use stroke="#FFFFFF" stroke-width="4" fill="#F6A623" xlink:href="#path-1"></use>
                <use stroke="#0E436E" stroke-width="7" fill-opacity="0.149999991" fill="none" xlink:href="#path-1"></use>
            </g>
            <path d="M80.9565862,74.8256846 C80.5879962,74.2249669 79.8925237,73.8527766 79.1380091,73.8527766 L64.7218139,73.8527766 L66.6188532,53.0629681 C66.6982278,52.1926594 66.1188846,51.3847197 65.2137017,51.1029882 C64.3125591,50.8193523 63.3096242,51.1365531 62.7902356,51.8702215 L39.8513748,84.2445862 C39.4358639,84.8304258 39.4043226,85.5769488 39.7699148,86.1896881 C40.1355071,86.8024273 40.8380177,87.1835444 41.6016558,87.1835444 L56.0321879,87.1835444 L54.1198994,109.890246 C54.0456079,110.768053 54.6402003,111.578016 55.5576349,111.848679 C55.7694307,111.910928 55.985267,111.940804 56.1991483,111.940804 C56.90987,111.940804 57.5920482,111.607058 57.9790155,111.02955 L80.9178764,76.7506713 C81.3109695,76.1630463 81.3262188,75.4264023 80.9565862,74.8256846 L80.9565862,74.8256846 L80.9565862,74.8256846 Z M58.943371,102.2829 L60.3637718,85.4254304 C60.4086074,84.8963655 60.2090631,84.3745612 59.8149273,83.9848743 C59.4198791,83.5962586 58.8649088,83.3747536 58.2845229,83.3747536 L45.4353565,83.3747536 L61.7710087,60.3188336 L60.3770661,75.5994643 C60.3292328,76.1304335 60.5257794,76.6546183 60.9208275,77.0470428 C61.3158757,77.4386341 61.8717584,77.6615674 62.4552723,77.6615674 L75.4195254,77.6615674 L58.943371,102.2829 L58.943371,102.2829 L58.943371,102.2829 Z" id="Shape" fill="#FFFFFF"></path>
        </g>
    </g>
</svg>