<?xml version="1.0" encoding="UTF-8" standalone="no"?>
<svg width="148px" height="129px" viewBox="0 0 148 129" version="1.1" xmlns="http://www.w3.org/2000/svg" xmlns:xlink="http://www.w3.org/1999/xlink">
    <!-- Generator: Sketch 3.6 (26304) - http://www.bohemiancoding.com/sketch -->
    <title>Group 2</title>
    <desc>Created with Sketch.</desc>
    <defs>
        <path id="path-1" d="M126,59 L76,25 C74.9054319,23.7735798 73.0945681,23.7735798 72,25 L22,59 C21.5431013,59.3227528 21,60.3184241 21,61 L21,119 C21,120.491815 22.6493017,122 25,122 L123,122 C125.350698,122 127,120.491815 127,119 L127,61 C127,60.3184241 126.457425,59.3227528 126,59 L126,59 Z"></path>
    </defs>
    <g id="Page-1" stroke="none" stroke-width="1" fill="none" fill-rule="evenodd">
        <g id="Group-2">
            <g id="Group">
                <path d="M125.740328,120.610776 L20.5046133,120.610776 L20.5046133,60.4917141 L73.1221672,24.2569108 L125.739721,60.4917141 L125.739721,120.610776 M125.740328,120.610776 L20.5046133,120.610776 L20.5046133,60.4917141 L73.1221672,24.2569108 L125.739721,60.4917141 L125.739721,120.610776" id="Shape" fill="#2B2A13"></path>
                <path d="M74,8.23404255 L141,54.0851064 C141.971881,54.7663803 142.867705,55 144,55 C145.042152,55 146.311689,54.5119379 147,53.1702128 C148.555185,52.0177931 148.182077,49.7882481 146,48.5957447 L77,0.914893617 C75.0419692,-0.238952373 72.9577712,-0.238952373 71,0.914893617 L2,47.5957447 C-0.182336405,48.7882481 -0.55483911,51.0172853 1,52.1702128 C2.26406754,54.1523607 4.9224649,54.4647002 7,53.0851064 L74,8.23404255 Z" id="Shape" fill="#0E436E"></path>
            </g>
            <g id="Path">
                <use stroke="#FFFFFF" stroke-width="4" fill="#F6A623" xlink:href="#path-1"></use>
                <use stroke="#0E436E" stroke-width="7" fill-opacity="0.670000017" fill="none" style="mix-blend-mode: overlay;" xlink:href="#path-1"></use>
            </g>
        </g>
    </g>
</svg>